<mxfile host="65bd71144e">
    <diagram id="Mc86kVZqUHED1tjQa2rH" name="Page-1">
        <mxGraphModel dx="1133" dy="757" grid="1" gridSize="10" guides="1" tooltips="1" connect="1" arrows="1" fold="1" page="1" pageScale="1" pageWidth="1200" pageHeight="1600" math="0" shadow="1">
            <root>
                <mxCell id="0"/>
                <mxCell id="1" parent="0"/>
                <mxCell id="87" style="edgeStyle=orthogonalEdgeStyle;rounded=0;orthogonalLoop=1;jettySize=auto;html=1;exitX=0.5;exitY=1;exitDx=0;exitDy=0;entryX=0.5;entryY=0;entryDx=0;entryDy=0;strokeColor=#60E696;fontColor=#095C86;endArrow=open;endFill=0;shadow=1;" parent="1" source="3" target="80" edge="1">
                    <mxGeometry relative="1" as="geometry"/>
                </mxCell>
                <mxCell id="3" value="" style="ellipse;whiteSpace=wrap;html=1;aspect=fixed;rounded=0;sketch=0;fontColor=#095C86;strokeColor=#AF45ED;fillColor=#F694C1;shadow=1;" parent="1" vertex="1">
                    <mxGeometry x="609.5" y="225" width="40" height="40" as="geometry"/>
                </mxCell>
                <mxCell id="6" value="" style="ellipse;whiteSpace=wrap;html=1;aspect=fixed;rounded=1;sketch=0;fontColor=#095C86;fillColor=none;strokeWidth=4;strokeColor=#AF45ED;shadow=1;" parent="1" vertex="1">
                    <mxGeometry x="430" y="1330" width="50" height="50" as="geometry"/>
                </mxCell>
                <mxCell id="7" value="" style="ellipse;whiteSpace=wrap;html=1;aspect=fixed;rounded=0;sketch=0;fontColor=#095C86;strokeColor=#AF45ED;fillColor=#F694C1;shadow=1;" parent="1" vertex="1">
                    <mxGeometry x="441" y="1341" width="28" height="28" as="geometry"/>
                </mxCell>
                <mxCell id="137" style="edgeStyle=orthogonalEdgeStyle;curved=0;rounded=1;sketch=0;orthogonalLoop=1;jettySize=auto;html=1;exitX=0;exitY=1;exitDx=0;exitDy=0;entryX=0.5;entryY=0;entryDx=0;entryDy=0;fontColor=#095C86;strokeColor=#60E696;fillColor=#F694C1;endArrow=open;endFill=0;shadow=1;" parent="1" source="10" target="88" edge="1">
                    <mxGeometry relative="1" as="geometry">
                        <Array as="points">
                            <mxPoint x="928" y="385"/>
                            <mxPoint x="628" y="385"/>
                        </Array>
                    </mxGeometry>
                </mxCell>
                <mxCell id="158" style="edgeStyle=orthogonalEdgeStyle;curved=0;rounded=1;sketch=0;orthogonalLoop=1;jettySize=auto;html=1;exitX=1;exitY=1;exitDx=0;exitDy=0;entryX=1;entryY=0;entryDx=0;entryDy=0;fontColor=#095C86;strokeColor=#60E696;fillColor=#F694C1;endArrow=open;endFill=0;shadow=1;" parent="1" source="10" target="157" edge="1">
                    <mxGeometry relative="1" as="geometry">
                        <Array as="points">
                            <mxPoint x="953" y="390"/>
                            <mxPoint x="1080" y="390"/>
                            <mxPoint x="1080" y="1005"/>
                            <mxPoint x="642" y="1005"/>
                        </Array>
                    </mxGeometry>
                </mxCell>
                <mxCell id="10" value="" style="rhombus;whiteSpace=wrap;html=1;rounded=0;sketch=0;fontColor=#095C86;strokeColor=#AF45ED;fillColor=#F694C1;shadow=1;" parent="1" vertex="1">
                    <mxGeometry x="915" y="335" width="50" height="50" as="geometry"/>
                </mxCell>
                <mxCell id="159" style="edgeStyle=orthogonalEdgeStyle;curved=0;rounded=1;sketch=0;orthogonalLoop=1;jettySize=auto;html=1;exitX=0.5;exitY=1;exitDx=0;exitDy=0;entryX=0;entryY=0;entryDx=0;entryDy=0;fontColor=#095C86;strokeColor=#60E696;fillColor=#F694C1;endArrow=open;endFill=0;shadow=1;" parent="1" source="78" target="157" edge="1">
                    <mxGeometry relative="1" as="geometry">
                        <Array as="points">
                            <mxPoint x="630" y="1005"/>
                            <mxPoint x="617" y="1005"/>
                        </Array>
                    </mxGeometry>
                </mxCell>
                <mxCell id="78" value="" style="rounded=0;whiteSpace=wrap;html=1;sketch=0;fontColor=#095C86;strokeColor=#AF45ED;fillColor=#F694C1;shadow=1;" parent="1" vertex="1">
                    <mxGeometry x="566" y="955" width="127" height="20" as="geometry"/>
                </mxCell>
                <mxCell id="136" style="edgeStyle=orthogonalEdgeStyle;curved=0;rounded=1;sketch=0;orthogonalLoop=1;jettySize=auto;html=1;exitX=1;exitY=0.5;exitDx=0;exitDy=0;entryX=0.5;entryY=0;entryDx=0;entryDy=0;fontColor=#095C86;strokeColor=#60E696;fillColor=#F694C1;endArrow=open;endFill=0;shadow=1;" parent="1" source="80" target="10" edge="1">
                    <mxGeometry relative="1" as="geometry"/>
                </mxCell>
                <mxCell id="80" value="Turn Key/ Push Button" style="rounded=1;whiteSpace=wrap;html=1;sketch=0;fontColor=#095C86;strokeColor=#AF45ED;fillColor=#F694C1;shadow=1;" parent="1" vertex="1">
                    <mxGeometry x="567" y="295" width="125" height="40" as="geometry"/>
                </mxCell>
                <mxCell id="107" style="edgeStyle=orthogonalEdgeStyle;curved=0;rounded=1;sketch=0;orthogonalLoop=1;jettySize=auto;html=1;exitX=0.5;exitY=1;exitDx=0;exitDy=0;entryX=0.5;entryY=0;entryDx=0;entryDy=0;fontColor=#095C86;strokeColor=#60E696;fillColor=#F694C1;endArrow=open;endFill=0;shadow=1;" parent="1" source="86" target="105" edge="1">
                    <mxGeometry relative="1" as="geometry"/>
                </mxCell>
                <mxCell id="86" value="Power Starter" style="rounded=1;whiteSpace=wrap;html=1;sketch=0;fontColor=#095C86;strokeColor=#AF45ED;fillColor=#F694C1;shadow=1;" parent="1" vertex="1">
                    <mxGeometry x="167.5" y="515" width="125" height="40" as="geometry"/>
                </mxCell>
                <mxCell id="91" style="edgeStyle=orthogonalEdgeStyle;curved=0;rounded=1;sketch=0;orthogonalLoop=1;jettySize=auto;html=1;exitX=0.5;exitY=1;exitDx=0;exitDy=0;entryX=0.5;entryY=0;entryDx=0;entryDy=0;fontColor=#095C86;strokeColor=#60E696;fillColor=#F694C1;endArrow=open;endFill=0;shadow=1;" parent="1" source="88" target="90" edge="1">
                    <mxGeometry relative="1" as="geometry"/>
                </mxCell>
                <mxCell id="88" value="ECU To Start Car" style="rounded=1;whiteSpace=wrap;html=1;sketch=0;fontColor=#095C86;strokeColor=#AF45ED;fillColor=#F694C1;shadow=1;" parent="1" vertex="1">
                    <mxGeometry x="565" y="415" width="125" height="40" as="geometry"/>
                </mxCell>
                <mxCell id="104" style="edgeStyle=orthogonalEdgeStyle;curved=0;rounded=1;sketch=0;orthogonalLoop=1;jettySize=auto;html=1;exitX=0;exitY=0.5;exitDx=0;exitDy=0;entryX=0.5;entryY=0;entryDx=0;entryDy=0;fontColor=#095C86;strokeColor=#60E696;fillColor=#F694C1;endArrow=open;endFill=0;shadow=1;" parent="1" source="90" target="86" edge="1">
                    <mxGeometry relative="1" as="geometry"/>
                </mxCell>
                <mxCell id="120" style="edgeStyle=orthogonalEdgeStyle;curved=0;rounded=1;sketch=0;orthogonalLoop=1;jettySize=auto;html=1;exitX=0.5;exitY=1;exitDx=0;exitDy=0;entryX=0.5;entryY=0;entryDx=0;entryDy=0;fontColor=#095C86;strokeColor=#60E696;fillColor=#F694C1;endArrow=open;endFill=0;shadow=1;" parent="1" source="90" target="102" edge="1">
                    <mxGeometry relative="1" as="geometry"/>
                </mxCell>
                <mxCell id="128" style="edgeStyle=orthogonalEdgeStyle;curved=0;rounded=1;sketch=0;orthogonalLoop=1;jettySize=auto;html=1;exitX=1;exitY=0.5;exitDx=0;exitDy=0;entryX=0.5;entryY=0;entryDx=0;entryDy=0;fontColor=#095C86;strokeColor=#60E696;fillColor=#F694C1;endArrow=open;endFill=0;shadow=1;" parent="1" source="90" target="103" edge="1">
                    <mxGeometry relative="1" as="geometry"/>
                </mxCell>
                <mxCell id="90" value="" style="rounded=0;whiteSpace=wrap;html=1;sketch=0;fontColor=#095C86;strokeColor=#AF45ED;fillColor=#F694C1;shadow=1;" parent="1" vertex="1">
                    <mxGeometry x="564" y="475" width="127" height="20" as="geometry"/>
                </mxCell>
                <mxCell id="97" value="&lt;font color=&quot;#ff99cc&quot; style=&quot;font-size: 14px&quot;&gt;[Juiced]&amp;nbsp; &amp;nbsp; &amp;nbsp; &amp;nbsp; &amp;nbsp; &amp;nbsp; &amp;nbsp; &amp;nbsp; &amp;nbsp; &amp;nbsp; &amp;nbsp;[Battery Dead]&lt;/font&gt;" style="text;html=1;strokeColor=none;fillColor=none;align=center;verticalAlign=middle;whiteSpace=wrap;rounded=0;sketch=0;fontColor=#095C86;shadow=1;" parent="1" vertex="1">
                    <mxGeometry x="830" y="354" width="260" height="20" as="geometry"/>
                </mxCell>
                <mxCell id="122" style="edgeStyle=orthogonalEdgeStyle;curved=0;rounded=1;sketch=0;orthogonalLoop=1;jettySize=auto;html=1;exitX=0.5;exitY=1;exitDx=0;exitDy=0;entryX=0.5;entryY=0;entryDx=0;entryDy=0;fontColor=#095C86;strokeColor=#60E696;fillColor=#F694C1;endArrow=open;endFill=0;shadow=1;" parent="1" source="102" target="121" edge="1">
                    <mxGeometry relative="1" as="geometry"/>
                </mxCell>
                <mxCell id="102" value="Power Fuel Pump" style="rounded=1;whiteSpace=wrap;html=1;sketch=0;fontColor=#095C86;strokeColor=#AF45ED;fillColor=#F694C1;shadow=1;" parent="1" vertex="1">
                    <mxGeometry x="565" y="515" width="125" height="40" as="geometry"/>
                </mxCell>
                <mxCell id="131" style="edgeStyle=orthogonalEdgeStyle;curved=0;rounded=1;sketch=0;orthogonalLoop=1;jettySize=auto;html=1;exitX=0.5;exitY=1;exitDx=0;exitDy=0;entryX=0.5;entryY=0;entryDx=0;entryDy=0;fontColor=#095C86;strokeColor=#60E696;fillColor=#F694C1;endArrow=open;endFill=0;shadow=1;" parent="1" source="103" target="129" edge="1">
                    <mxGeometry relative="1" as="geometry"/>
                </mxCell>
                <mxCell id="103" value="Power Injector Drive Module (IDM)" style="rounded=1;whiteSpace=wrap;html=1;sketch=0;fontColor=#095C86;strokeColor=#AF45ED;fillColor=#F694C1;shadow=1;" parent="1" vertex="1">
                    <mxGeometry x="857" y="515" width="125" height="40" as="geometry"/>
                </mxCell>
                <mxCell id="112" style="edgeStyle=orthogonalEdgeStyle;curved=0;rounded=1;sketch=0;orthogonalLoop=1;jettySize=auto;html=1;exitX=0;exitY=1;exitDx=0;exitDy=0;fontColor=#095C86;strokeColor=#60E696;fillColor=#F694C1;endArrow=open;endFill=0;shadow=1;" parent="1" source="105" target="110" edge="1">
                    <mxGeometry relative="1" as="geometry">
                        <Array as="points">
                            <mxPoint x="218" y="655"/>
                            <mxPoint x="142" y="655"/>
                        </Array>
                    </mxGeometry>
                </mxCell>
                <mxCell id="113" style="edgeStyle=orthogonalEdgeStyle;curved=0;rounded=1;sketch=0;orthogonalLoop=1;jettySize=auto;html=1;exitX=1;exitY=1;exitDx=0;exitDy=0;entryX=0.5;entryY=0;entryDx=0;entryDy=0;fontColor=#095C86;strokeColor=#60E696;fillColor=#F694C1;endArrow=open;endFill=0;shadow=1;" parent="1" source="105" target="106" edge="1">
                    <mxGeometry relative="1" as="geometry">
                        <Array as="points">
                            <mxPoint x="242" y="625"/>
                            <mxPoint x="335" y="625"/>
                        </Array>
                    </mxGeometry>
                </mxCell>
                <mxCell id="105" value="" style="rhombus;whiteSpace=wrap;html=1;rounded=0;sketch=0;fontColor=#095C86;strokeColor=#AF45ED;fillColor=#F694C1;shadow=1;" parent="1" vertex="1">
                    <mxGeometry x="205" y="580" width="50" height="50" as="geometry"/>
                </mxCell>
                <mxCell id="118" style="edgeStyle=orthogonalEdgeStyle;curved=0;rounded=1;sketch=0;orthogonalLoop=1;jettySize=auto;html=1;exitX=1;exitY=1;exitDx=0;exitDy=0;entryX=0.5;entryY=0;entryDx=0;entryDy=0;fontColor=#095C86;strokeColor=#60E696;fillColor=#F694C1;endArrow=open;endFill=0;shadow=1;" parent="1" source="106" target="117" edge="1">
                    <mxGeometry relative="1" as="geometry">
                        <Array as="points">
                            <mxPoint x="348" y="705"/>
                            <mxPoint x="411" y="705"/>
                        </Array>
                    </mxGeometry>
                </mxCell>
                <mxCell id="119" style="edgeStyle=orthogonalEdgeStyle;curved=0;rounded=1;sketch=0;orthogonalLoop=1;jettySize=auto;html=1;exitX=0;exitY=1;exitDx=0;exitDy=0;entryX=0.5;entryY=0;entryDx=0;entryDy=0;fontColor=#095C86;strokeColor=#60E696;fillColor=#F694C1;endArrow=open;endFill=0;shadow=1;" parent="1" source="106" target="115" edge="1">
                    <mxGeometry relative="1" as="geometry">
                        <Array as="points">
                            <mxPoint x="322" y="705"/>
                            <mxPoint x="275" y="705"/>
                        </Array>
                    </mxGeometry>
                </mxCell>
                <mxCell id="106" value="" style="rhombus;whiteSpace=wrap;html=1;rounded=0;sketch=0;fontColor=#095C86;strokeColor=#AF45ED;fillColor=#F694C1;shadow=1;" parent="1" vertex="1">
                    <mxGeometry x="310" y="645" width="50" height="50" as="geometry"/>
                </mxCell>
                <mxCell id="108" value="&lt;font color=&quot;#ff99cc&quot; style=&quot;font-size: 14px&quot;&gt;[Short]&amp;nbsp; &amp;nbsp; &amp;nbsp; &amp;nbsp; &amp;nbsp; &amp;nbsp; &amp;nbsp; &amp;nbsp; [Juiced]&lt;/font&gt;" style="text;html=1;strokeColor=none;fillColor=none;align=center;verticalAlign=middle;whiteSpace=wrap;rounded=0;sketch=0;fontColor=#095C86;shadow=1;" parent="1" vertex="1">
                    <mxGeometry x="129" y="595" width="210" height="20" as="geometry"/>
                </mxCell>
                <mxCell id="147" style="edgeStyle=orthogonalEdgeStyle;curved=0;rounded=1;sketch=0;orthogonalLoop=1;jettySize=auto;html=1;exitX=0.5;exitY=1;exitDx=0;exitDy=0;entryX=0;entryY=0;entryDx=0;entryDy=0;fontColor=#095C86;strokeColor=#60E696;fillColor=#F694C1;endArrow=open;endFill=0;shadow=1;" parent="1" source="110" target="143" edge="1">
                    <mxGeometry relative="1" as="geometry">
                        <Array as="points">
                            <mxPoint x="142" y="835"/>
                            <mxPoint x="218" y="835"/>
                        </Array>
                    </mxGeometry>
                </mxCell>
                <mxCell id="110" value="No Crank" style="rounded=1;whiteSpace=wrap;html=1;sketch=0;fontColor=#095C86;strokeColor=#AF45ED;fillColor=#F694C1;shadow=1;" parent="1" vertex="1">
                    <mxGeometry x="80" y="725" width="125" height="40" as="geometry"/>
                </mxCell>
                <mxCell id="114" value="&lt;font color=&quot;#ff99cc&quot; style=&quot;font-size: 14px&quot;&gt;[Solenoid Out]&amp;nbsp; &amp;nbsp; &amp;nbsp; &amp;nbsp; &amp;nbsp; &amp;nbsp; [Juiced]&lt;/font&gt;" style="text;html=1;strokeColor=none;fillColor=none;align=center;verticalAlign=middle;whiteSpace=wrap;rounded=0;sketch=0;fontColor=#095C86;shadow=1;" parent="1" vertex="1">
                    <mxGeometry x="210.5" y="682" width="210" height="20" as="geometry"/>
                </mxCell>
                <mxCell id="142" style="edgeStyle=orthogonalEdgeStyle;curved=0;rounded=1;sketch=0;orthogonalLoop=1;jettySize=auto;html=1;exitX=0.5;exitY=1;exitDx=0;exitDy=0;entryX=0;entryY=0;entryDx=0;entryDy=0;fontColor=#095C86;strokeColor=#60E696;fillColor=#F694C1;endArrow=open;endFill=0;shadow=1;" parent="1" source="115" target="140" edge="1">
                    <mxGeometry relative="1" as="geometry"/>
                </mxCell>
                <mxCell id="115" value="No Crank" style="rounded=1;whiteSpace=wrap;html=1;sketch=0;fontColor=#095C86;strokeColor=#AF45ED;fillColor=#F694C1;shadow=1;" parent="1" vertex="1">
                    <mxGeometry x="212.5" y="725" width="125" height="40" as="geometry"/>
                </mxCell>
                <mxCell id="141" style="edgeStyle=orthogonalEdgeStyle;curved=0;rounded=1;sketch=0;orthogonalLoop=1;jettySize=auto;html=1;exitX=0.5;exitY=1;exitDx=0;exitDy=0;entryX=1;entryY=0;entryDx=0;entryDy=0;fontColor=#095C86;strokeColor=#60E696;fillColor=#F694C1;endArrow=open;endFill=0;shadow=1;" parent="1" source="117" target="140" edge="1">
                    <mxGeometry relative="1" as="geometry"/>
                </mxCell>
                <mxCell id="117" value="Crank" style="rounded=1;whiteSpace=wrap;html=1;sketch=0;fontColor=#095C86;strokeColor=#AF45ED;fillColor=#F694C1;shadow=1;" parent="1" vertex="1">
                    <mxGeometry x="348.5" y="725" width="125" height="40" as="geometry"/>
                </mxCell>
                <mxCell id="126" style="edgeStyle=orthogonalEdgeStyle;curved=0;rounded=1;sketch=0;orthogonalLoop=1;jettySize=auto;html=1;exitX=0;exitY=1;exitDx=0;exitDy=0;fontColor=#095C86;strokeColor=#60E696;fillColor=#F694C1;endArrow=open;endFill=0;shadow=1;" parent="1" source="121" target="124" edge="1">
                    <mxGeometry relative="1" as="geometry"/>
                </mxCell>
                <mxCell id="127" style="edgeStyle=orthogonalEdgeStyle;curved=0;rounded=1;sketch=0;orthogonalLoop=1;jettySize=auto;html=1;exitX=1;exitY=1;exitDx=0;exitDy=0;entryX=0.5;entryY=0;entryDx=0;entryDy=0;fontColor=#095C86;strokeColor=#60E696;fillColor=#F694C1;endArrow=open;endFill=0;shadow=1;" parent="1" source="121" target="125" edge="1">
                    <mxGeometry relative="1" as="geometry"/>
                </mxCell>
                <mxCell id="121" value="" style="rhombus;whiteSpace=wrap;html=1;rounded=0;sketch=0;fontColor=#095C86;strokeColor=#AF45ED;fillColor=#F694C1;shadow=1;" parent="1" vertex="1">
                    <mxGeometry x="602.5" y="600" width="50" height="50" as="geometry"/>
                </mxCell>
                <mxCell id="123" value="&lt;font color=&quot;#ff99cc&quot; style=&quot;font-size: 14px&quot;&gt;[Short/ No Fuel]&amp;nbsp; &amp;nbsp; &amp;nbsp; &amp;nbsp; &amp;nbsp; &amp;nbsp;[Juiced]&lt;/font&gt;" style="text;html=1;strokeColor=none;fillColor=none;align=center;verticalAlign=middle;whiteSpace=wrap;rounded=0;sketch=0;fontColor=#095C86;shadow=1;" parent="1" vertex="1">
                    <mxGeometry x="489" y="663" width="230" height="20" as="geometry"/>
                </mxCell>
                <mxCell id="150" style="edgeStyle=orthogonalEdgeStyle;curved=0;rounded=1;sketch=0;orthogonalLoop=1;jettySize=auto;html=1;exitX=0.5;exitY=1;exitDx=0;exitDy=0;entryX=0;entryY=0;entryDx=0;entryDy=0;fontColor=#095C86;strokeColor=#60E696;fillColor=#F694C1;endArrow=open;endFill=0;shadow=1;" parent="1" source="124" target="148" edge="1">
                    <mxGeometry relative="1" as="geometry"/>
                </mxCell>
                <mxCell id="124" value="No Fuel Delivered To Injectors" style="rounded=1;whiteSpace=wrap;html=1;sketch=0;fontColor=#095C86;strokeColor=#AF45ED;fillColor=#F694C1;shadow=1;" parent="1" vertex="1">
                    <mxGeometry x="492.5" y="725" width="125" height="40" as="geometry"/>
                </mxCell>
                <mxCell id="151" style="edgeStyle=orthogonalEdgeStyle;curved=0;rounded=1;sketch=0;orthogonalLoop=1;jettySize=auto;html=1;exitX=0.5;exitY=1;exitDx=0;exitDy=0;entryX=1;entryY=0;entryDx=0;entryDy=0;fontColor=#095C86;strokeColor=#60E696;fillColor=#F694C1;endArrow=open;endFill=0;shadow=1;" parent="1" source="125" target="148" edge="1">
                    <mxGeometry relative="1" as="geometry"/>
                </mxCell>
                <mxCell id="125" value="Fuel Delivered To Injectors" style="rounded=1;whiteSpace=wrap;html=1;sketch=0;fontColor=#095C86;strokeColor=#AF45ED;fillColor=#F694C1;shadow=1;" parent="1" vertex="1">
                    <mxGeometry x="639" y="725" width="125" height="40" as="geometry"/>
                </mxCell>
                <mxCell id="138" style="edgeStyle=orthogonalEdgeStyle;curved=0;rounded=1;sketch=0;orthogonalLoop=1;jettySize=auto;html=1;exitX=0;exitY=1;exitDx=0;exitDy=0;fontColor=#095C86;strokeColor=#60E696;fillColor=#F694C1;endArrow=open;endFill=0;shadow=1;" parent="1" source="129" target="132" edge="1">
                    <mxGeometry relative="1" as="geometry"/>
                </mxCell>
                <mxCell id="139" style="edgeStyle=orthogonalEdgeStyle;curved=0;rounded=1;sketch=0;orthogonalLoop=1;jettySize=auto;html=1;exitX=1;exitY=1;exitDx=0;exitDy=0;fontColor=#095C86;strokeColor=#60E696;fillColor=#F694C1;endArrow=open;endFill=0;shadow=1;" parent="1" source="129" target="133" edge="1">
                    <mxGeometry relative="1" as="geometry"/>
                </mxCell>
                <mxCell id="129" value="" style="rhombus;whiteSpace=wrap;html=1;rounded=0;sketch=0;fontColor=#095C86;strokeColor=#AF45ED;fillColor=#F694C1;shadow=1;" parent="1" vertex="1">
                    <mxGeometry x="894.5" y="600" width="50" height="50" as="geometry"/>
                </mxCell>
                <mxCell id="130" value="&lt;font color=&quot;#ff99cc&quot; style=&quot;font-size: 14px&quot;&gt;[Short]&amp;nbsp; &amp;nbsp; &amp;nbsp; &amp;nbsp; &amp;nbsp; &amp;nbsp; &amp;nbsp; &amp;nbsp; [Juiced]&lt;/font&gt;" style="text;html=1;strokeColor=none;fillColor=none;align=center;verticalAlign=middle;whiteSpace=wrap;rounded=0;sketch=0;fontColor=#095C86;shadow=1;" parent="1" vertex="1">
                    <mxGeometry x="814.5" y="664" width="210" height="20" as="geometry"/>
                </mxCell>
                <mxCell id="152" style="edgeStyle=orthogonalEdgeStyle;curved=0;rounded=1;sketch=0;orthogonalLoop=1;jettySize=auto;html=1;exitX=0.5;exitY=1;exitDx=0;exitDy=0;entryX=0;entryY=0;entryDx=0;entryDy=0;fontColor=#095C86;strokeColor=#60E696;fillColor=#F694C1;endArrow=open;endFill=0;shadow=1;" parent="1" source="132" target="149" edge="1">
                    <mxGeometry relative="1" as="geometry"/>
                </mxCell>
                <mxCell id="132" value="No Fuel Delivered To Cylinder" style="rounded=1;whiteSpace=wrap;html=1;sketch=0;fontColor=#095C86;strokeColor=#AF45ED;fillColor=#F694C1;shadow=1;" parent="1" vertex="1">
                    <mxGeometry x="780" y="725" width="125" height="40" as="geometry"/>
                </mxCell>
                <mxCell id="153" style="edgeStyle=orthogonalEdgeStyle;curved=0;rounded=1;sketch=0;orthogonalLoop=1;jettySize=auto;html=1;exitX=0.5;exitY=1;exitDx=0;exitDy=0;entryX=1;entryY=0;entryDx=0;entryDy=0;fontColor=#095C86;strokeColor=#60E696;fillColor=#F694C1;endArrow=open;endFill=0;shadow=1;" parent="1" source="133" target="149" edge="1">
                    <mxGeometry relative="1" as="geometry"/>
                </mxCell>
                <mxCell id="133" value="Fuel Delivered To Cylinder" style="rounded=1;whiteSpace=wrap;html=1;sketch=0;fontColor=#095C86;strokeColor=#AF45ED;fillColor=#F694C1;shadow=1;" parent="1" vertex="1">
                    <mxGeometry x="939" y="725" width="125" height="40" as="geometry"/>
                </mxCell>
                <mxCell id="146" style="edgeStyle=orthogonalEdgeStyle;curved=0;rounded=1;sketch=0;orthogonalLoop=1;jettySize=auto;html=1;exitX=0.5;exitY=1;exitDx=0;exitDy=0;entryX=1;entryY=0;entryDx=0;entryDy=0;fontColor=#095C86;strokeColor=#60E696;fillColor=#F694C1;endArrow=open;endFill=0;shadow=1;" parent="1" source="140" target="143" edge="1">
                    <mxGeometry relative="1" as="geometry"/>
                </mxCell>
                <mxCell id="140" value="" style="rhombus;whiteSpace=wrap;html=1;rounded=0;sketch=0;fontColor=#095C86;strokeColor=#AF45ED;fillColor=#F694C1;shadow=1;" parent="1" vertex="1">
                    <mxGeometry x="310" y="795" width="50" height="50" as="geometry"/>
                </mxCell>
                <mxCell id="156" style="edgeStyle=orthogonalEdgeStyle;curved=0;rounded=1;sketch=0;orthogonalLoop=1;jettySize=auto;html=1;exitX=0.5;exitY=1;exitDx=0;exitDy=0;entryX=0;entryY=0.5;entryDx=0;entryDy=0;fontColor=#095C86;strokeColor=#60E696;fillColor=#F694C1;endArrow=open;endFill=0;shadow=1;" parent="1" source="143" target="78" edge="1">
                    <mxGeometry relative="1" as="geometry"/>
                </mxCell>
                <mxCell id="143" value="" style="rhombus;whiteSpace=wrap;html=1;rounded=0;sketch=0;fontColor=#095C86;strokeColor=#AF45ED;fillColor=#F694C1;shadow=1;" parent="1" vertex="1">
                    <mxGeometry x="205" y="855" width="50" height="50" as="geometry"/>
                </mxCell>
                <mxCell id="154" style="edgeStyle=orthogonalEdgeStyle;curved=0;rounded=1;sketch=0;orthogonalLoop=1;jettySize=auto;html=1;exitX=0.5;exitY=1;exitDx=0;exitDy=0;entryX=0.5;entryY=0;entryDx=0;entryDy=0;fontColor=#095C86;strokeColor=#60E696;fillColor=#F694C1;endArrow=open;endFill=0;shadow=1;" parent="1" source="148" target="78" edge="1">
                    <mxGeometry relative="1" as="geometry"/>
                </mxCell>
                <mxCell id="148" value="" style="rhombus;whiteSpace=wrap;html=1;rounded=0;sketch=0;fontColor=#095C86;strokeColor=#AF45ED;fillColor=#F694C1;shadow=1;" parent="1" vertex="1">
                    <mxGeometry x="604.5" y="855" width="50" height="50" as="geometry"/>
                </mxCell>
                <mxCell id="155" style="edgeStyle=orthogonalEdgeStyle;curved=0;rounded=1;sketch=0;orthogonalLoop=1;jettySize=auto;html=1;exitX=0.5;exitY=1;exitDx=0;exitDy=0;entryX=1;entryY=0.5;entryDx=0;entryDy=0;fontColor=#095C86;strokeColor=#60E696;fillColor=#F694C1;endArrow=open;endFill=0;shadow=1;" parent="1" source="149" target="78" edge="1">
                    <mxGeometry relative="1" as="geometry"/>
                </mxCell>
                <mxCell id="149" value="" style="rhombus;whiteSpace=wrap;html=1;rounded=0;sketch=0;fontColor=#095C86;strokeColor=#AF45ED;fillColor=#F694C1;shadow=1;" parent="1" vertex="1">
                    <mxGeometry x="894.5" y="855" width="50" height="50" as="geometry"/>
                </mxCell>
                <mxCell id="161" style="edgeStyle=orthogonalEdgeStyle;curved=0;rounded=1;sketch=0;orthogonalLoop=1;jettySize=auto;html=1;exitX=0.5;exitY=1;exitDx=0;exitDy=0;entryX=0.5;entryY=0;entryDx=0;entryDy=0;fontColor=#095C86;strokeColor=#60E696;fillColor=#F694C1;endArrow=open;endFill=0;shadow=1;" parent="1" source="157" target="160" edge="1">
                    <mxGeometry relative="1" as="geometry"/>
                </mxCell>
                <mxCell id="157" value="" style="rhombus;whiteSpace=wrap;html=1;rounded=0;sketch=0;fontColor=#095C86;strokeColor=#AF45ED;fillColor=#F694C1;shadow=1;" parent="1" vertex="1">
                    <mxGeometry x="604.5" y="1055" width="50" height="50" as="geometry"/>
                </mxCell>
                <mxCell id="165" style="edgeStyle=orthogonalEdgeStyle;curved=0;rounded=1;sketch=0;orthogonalLoop=1;jettySize=auto;html=1;exitX=1;exitY=1;exitDx=0;exitDy=0;entryX=0.5;entryY=0;entryDx=0;entryDy=0;fontColor=#095C86;strokeColor=#60E696;fillColor=#F694C1;endArrow=open;endFill=0;shadow=1;" parent="1" source="160" target="163" edge="1">
                    <mxGeometry relative="1" as="geometry"/>
                </mxCell>
                <mxCell id="166" style="edgeStyle=orthogonalEdgeStyle;curved=0;rounded=1;sketch=0;orthogonalLoop=1;jettySize=auto;html=1;exitX=0;exitY=1;exitDx=0;exitDy=0;entryX=0.5;entryY=0;entryDx=0;entryDy=0;fontColor=#095C86;strokeColor=#60E696;fillColor=#F694C1;endArrow=open;endFill=0;shadow=1;" parent="1" source="160" target="164" edge="1">
                    <mxGeometry relative="1" as="geometry"/>
                </mxCell>
                <mxCell id="160" value="" style="rhombus;whiteSpace=wrap;html=1;rounded=0;sketch=0;fontColor=#095C86;strokeColor=#AF45ED;fillColor=#F694C1;shadow=1;" parent="1" vertex="1">
                    <mxGeometry x="604.5" y="1125" width="50" height="50" as="geometry"/>
                </mxCell>
                <mxCell id="162" value="&lt;font color=&quot;#ff99cc&quot; style=&quot;font-size: 14px&quot;&gt;[No Start]&amp;nbsp; &amp;nbsp; &amp;nbsp; &amp;nbsp; &amp;nbsp; &amp;nbsp; &amp;nbsp; &amp;nbsp; [Running]&lt;/font&gt;" style="text;html=1;strokeColor=none;fillColor=none;align=center;verticalAlign=middle;whiteSpace=wrap;rounded=0;sketch=0;fontColor=#095C86;shadow=1;" parent="1" vertex="1">
                    <mxGeometry x="524.5" y="1170" width="210" height="20" as="geometry"/>
                </mxCell>
                <mxCell id="169" style="edgeStyle=orthogonalEdgeStyle;curved=0;rounded=1;sketch=0;orthogonalLoop=1;jettySize=auto;html=1;exitX=0.5;exitY=1;exitDx=0;exitDy=0;entryX=0.5;entryY=0;entryDx=0;entryDy=0;fontColor=#095C86;strokeColor=#60E696;fillColor=#F694C1;endArrow=open;endFill=0;shadow=1;" parent="1" source="163" target="167" edge="1">
                    <mxGeometry relative="1" as="geometry"/>
                </mxCell>
                <mxCell id="163" value="Drive" style="rounded=1;whiteSpace=wrap;html=1;sketch=0;fontColor=#095C86;strokeColor=#AF45ED;fillColor=#F694C1;shadow=1;" parent="1" vertex="1">
                    <mxGeometry x="640" y="1215" width="125" height="40" as="geometry"/>
                </mxCell>
                <mxCell id="176" style="edgeStyle=orthogonalEdgeStyle;curved=0;rounded=1;sketch=0;orthogonalLoop=1;jettySize=auto;html=1;exitX=0.5;exitY=1;exitDx=0;exitDy=0;fontColor=#095C86;strokeColor=#60E696;fillColor=#F694C1;endArrow=open;endFill=0;shadow=1;" parent="1" source="164" target="174" edge="1">
                    <mxGeometry relative="1" as="geometry"/>
                </mxCell>
                <mxCell id="164" value="Troubleshoot" style="rounded=1;whiteSpace=wrap;html=1;sketch=0;fontColor=#095C86;strokeColor=#AF45ED;fillColor=#F694C1;shadow=1;" parent="1" vertex="1">
                    <mxGeometry x="492.5" y="1215" width="125" height="40" as="geometry"/>
                </mxCell>
                <mxCell id="171" style="edgeStyle=orthogonalEdgeStyle;curved=0;rounded=1;sketch=0;orthogonalLoop=1;jettySize=auto;html=1;exitX=0.5;exitY=1;exitDx=0;exitDy=0;entryX=0.5;entryY=0;entryDx=0;entryDy=0;fontColor=#095C86;strokeColor=#60E696;fillColor=#F694C1;endArrow=open;endFill=0;shadow=1;" parent="1" source="167" target="168" edge="1">
                    <mxGeometry relative="1" as="geometry"/>
                </mxCell>
                <mxCell id="167" value="Turn Key/ Push Button" style="rounded=1;whiteSpace=wrap;html=1;sketch=0;fontColor=#095C86;strokeColor=#AF45ED;fillColor=#F694C1;shadow=1;" parent="1" vertex="1">
                    <mxGeometry x="640" y="1275" width="125" height="40" as="geometry"/>
                </mxCell>
                <mxCell id="175" style="edgeStyle=orthogonalEdgeStyle;curved=0;rounded=1;sketch=0;orthogonalLoop=1;jettySize=auto;html=1;exitX=0;exitY=0.5;exitDx=0;exitDy=0;entryX=1;entryY=0.5;entryDx=0;entryDy=0;fontColor=#095C86;strokeColor=#60E696;fillColor=#F694C1;endArrow=open;endFill=0;shadow=1;" parent="1" source="168" target="174" edge="1">
                    <mxGeometry relative="1" as="geometry"/>
                </mxCell>
                <mxCell id="168" value="Shut Down Vehicle" style="rounded=1;whiteSpace=wrap;html=1;sketch=0;fontColor=#095C86;strokeColor=#AF45ED;fillColor=#F694C1;shadow=1;" parent="1" vertex="1">
                    <mxGeometry x="640" y="1335" width="125" height="40" as="geometry"/>
                </mxCell>
                <mxCell id="177" style="edgeStyle=orthogonalEdgeStyle;curved=0;rounded=1;sketch=0;orthogonalLoop=1;jettySize=auto;html=1;exitX=0;exitY=0.5;exitDx=0;exitDy=0;entryX=1;entryY=0.5;entryDx=0;entryDy=0;fontColor=#095C86;strokeColor=#60E696;fillColor=#F694C1;endArrow=open;endFill=0;shadow=1;" parent="1" source="174" target="7" edge="1">
                    <mxGeometry relative="1" as="geometry"/>
                </mxCell>
                <mxCell id="174" value="" style="rhombus;whiteSpace=wrap;html=1;rounded=0;sketch=0;fontColor=#095C86;strokeColor=#AF45ED;fillColor=#F694C1;shadow=1;" parent="1" vertex="1">
                    <mxGeometry x="530" y="1330" width="50" height="50" as="geometry"/>
                </mxCell>
            </root>
        </mxGraphModel>
    </diagram>
</mxfile>